<?xml version="1.0" encoding="UTF-8"?>
<svg xmlns="http://www.w3.org/2000/svg" width="224" height="44" viewBox="0 0 224 44" fill="none">
  <g clip-path="url(#clip0_2332_512)">
    <path fill-rule="evenodd" clip-rule="evenodd" d="M53.5536 18.1394C52.4019 17.9723 50.7622 17.0902 49.7234 16.6009C48.574 16.0511 47.7916 16.1772 46.1823 15.163C45.6735 14.8424 45.1547 14.6186 44.6464 15.0525C44.0773 15.5696 43.5813 16.2337 43.0691 16.8158C42.6957 17.2581 42.3214 17.6979 41.9504 18.1664C41.6646 18.4196 41.6073 18.7733 41.8442 19.154C41.877 19.2072 41.9066 19.2621 41.9369 19.316C42.237 19.8453 42.5422 20.4311 42.844 20.9047C43.29 21.7302 43.7106 22.5735 44.251 23.3526C44.5882 23.8447 44.8504 24.3951 45.153 24.915C45.4059 25.3438 45.6731 25.7591 45.9117 26.2428C46.2565 26.8109 46.5794 27.4406 46.9191 28.061C47.1973 28.4459 47.3221 28.8308 47.2319 29.2926C47.1417 29.7543 46.5895 30.3477 45.9674 30.1949C45.5737 30.1054 45.2508 29.9358 45.0308 29.637C44.6531 29.1229 44.6329 29.0076 44.251 28.4519C43.9556 28.0221 43.8924 27.9925 43.6066 27.9147C42.8788 27.7165 41.825 28.1567 41.2393 28.4519C40.8188 28.6637 40.5206 28.8831 40.1683 29.0055C38.1529 29.7656 36.0363 29.7499 33.9561 30.1392C33.1738 30.2852 32.3898 30.2793 31.5813 30.2304C31.0225 30.1958 30.6625 30.4372 30.2645 30.8668C29.9788 31.2298 29.956 31.4721 30.1912 31.873C30.3354 32.1194 30.4888 32.3609 30.6414 32.6023C31.2308 33.6438 31.5622 34.2977 32.2719 35.5426C33.1368 37.0598 34.2666 38.2548 34.742 39.6218C34.935 40.177 35.2173 40.5572 35.3935 40.9784C35.6986 41.5253 36.04 42.0538 36.3157 42.6142C36.5577 43.1046 36.3351 43.4741 35.9431 43.6542C35.461 43.8756 35.1205 43.1723 34.8564 42.8387C34 41.7583 33.1266 40.6922 32.2752 39.6218C31.6463 38.8073 31.0579 37.975 30.4206 37.179C29.6512 36.2117 28.8643 35.2578 28.0601 34.3175C27.6715 33.8608 27.416 33.9039 26.9903 34.2981C26.3556 34.9894 25.3582 36.4426 24.6762 37.1407C24.3829 37.436 24.0626 37.703 23.7194 37.9384C23.4202 38.1232 23.138 38.3346 22.8764 38.5698C22.4381 38.9919 22.1952 39.2847 21.7653 39.6586C21.6382 39.7945 21.4947 39.9138 21.3379 40.0139C21.2307 40.0761 21.1092 40.1093 20.9852 40.1099C20.8614 40.1106 20.7394 40.0789 20.6315 40.018C20.5236 39.957 20.4335 39.8689 20.3701 39.7623C20.3066 39.6558 20.2721 39.5344 20.2698 39.4104C20.1964 39.0947 20.267 38.7767 20.3701 38.5698C20.4731 38.3629 20.3578 38.1237 20.2698 37.74C20.0996 36.9979 20.1239 36.6589 20.5329 36.2131C21.5951 35.0549 22.4853 33.4565 23.2499 32.5795C23.6368 32.1355 24.0398 31.7041 24.4343 31.2661C24.554 31.1327 24.6796 31.05 24.7977 30.855C24.8887 30.7005 24.8327 30.5513 24.7471 30.3899C24.6016 30.1159 24.2902 30.0978 24.0162 30.0793C22.8233 29.9999 21.708 29.7222 20.4941 29.507C19.2152 29.2715 18.0283 28.7633 16.7975 28.3885C15.4411 27.9766 14.2912 27.2067 13.1211 26.4597C12.1811 25.8596 11.4106 25.0636 10.6342 24.2929C10.6235 24.2916 10.6136 24.2866 10.6064 24.2786C10.1773 23.8835 9.99769 23.8177 9.49617 24.1942C9.33956 24.3174 9.16997 24.423 8.99032 24.509C8.86436 24.5732 8.72132 24.5956 8.58179 24.5732C8.44226 24.5507 8.31346 24.4845 8.21391 24.3841C7.97534 24.1672 7.8936 23.8953 8.0124 23.6092C8.13314 23.3243 8.28587 23.0542 8.46769 22.8039C8.78546 22.3924 8.97488 21.8923 9.33598 21.4025C9.96921 20.5434 10.5918 20.0931 11.1231 19.4427C11.8364 18.6653 12.5318 17.7705 13.24 16.9348C13.7457 16.344 13.8039 16.1195 13.2838 15.4999C12.735 14.7866 12.1659 14.0885 11.618 13.3752C11.4983 13.2208 11.4267 13.0519 11.2985 12.8832C11.0119 12.3809 10.6544 12.1462 10.066 12.2982C9.7507 12.3826 9.41182 12.3742 9.0898 12.4383C8.32435 12.592 7.56308 12.7641 6.79934 12.9287C5.3561 13.2411 3.9567 13.7053 2.55562 14.167C2.05992 14.33 1.52883 14.3933 1.00953 14.4752C0.588027 14.5655 0.297188 14.3063 0.0822204 13.9788C-0.0147264 13.6547 -0.048447 13.3229 0.10751 13.0089C0.403408 12.4982 0.894885 12.1547 1.38214 11.8745C1.732 11.7191 2.11135 11.4836 2.49071 11.3004C4.49842 10.3313 6.53754 9.51844 8.66405 8.84076C9.24157 8.67192 9.77516 8.5875 10.3265 8.44059C12.1982 7.94384 14.0954 7.2101 16.059 7.17701C17.6433 7.15079 19.1504 6.80292 20.747 6.97526C21.332 7.03857 21.7872 6.84611 22.1421 6.33459C23.1873 5.0695 24.2962 3.78661 25.4417 2.60871C25.9273 2.10984 26.4171 1.59578 26.922 1.13828C27.5484 0.587075 28.3156 0.329622 29.1442 0.305143C29.5904 0.296286 30.0366 0.322534 30.4787 0.383645C31.0284 0.453705 31.4346 0.77362 31.7323 1.23282C33.1359 3.41736 34.5412 5.56307 35.9397 7.73241C36.0542 7.91468 36.1505 8.10776 36.2272 8.30896C36.4405 8.7867 36.7794 9.10238 37.3045 9.20537C38.0776 9.35646 38.7299 9.53477 39.402 9.70413C40.4438 9.96672 41.0138 10.0461 41.6874 10.3331C42.2076 10.5315 42.8111 10.6707 43.2967 10.8396C43.8758 11.0219 44.4508 11.2177 45.0839 11.3823C45.953 11.6423 46.9048 11.8086 47.7916 12.1471C48.7476 12.5126 49.7087 12.9026 50.5736 13.4749C51.5608 14.1299 52.5758 14.8457 53.5191 15.4644C54.0957 15.8561 54.5382 16.3498 54.7043 17.0505C54.8775 17.7859 54.276 18.2396 53.5536 18.1394ZM18.2301 10.8859C18.1304 10.5215 17.5388 10.6932 17.1293 10.6979C16.8466 10.7012 16.3837 10.7965 16.1628 10.8859C15.7303 11.1138 15.3036 11.262 15.5721 11.8529C15.7045 12.5003 16.4049 13.0773 17.1293 12.498C17.3107 12.353 17.7323 12.0312 17.8811 11.8529C18.0607 11.6427 18.3109 11.181 18.2301 10.8859ZM17.6995 21.2305C17.1094 20.5139 16.4872 19.8445 15.9764 19.0831C15.8921 18.9573 15.8171 18.8304 15.6552 18.7505C15.3402 18.5952 14.9927 18.7741 14.786 18.981C14.0458 19.7246 13.3107 20.4733 12.5942 21.2212C12.0825 21.7277 12.0774 22.008 12.6456 22.5127C13.1573 23.0918 13.8469 23.5113 14.5846 23.8472C15.844 24.4828 17.1405 24.8982 18.4851 25.2324C19.109 25.3877 19.7817 25.4992 20.3617 25.6283C20.4525 25.6048 20.5402 25.5708 20.623 25.527C20.8161 25.3903 20.8473 25.2206 20.6955 25.0678C20.395 24.5872 20.0567 24.1314 19.684 23.7046C19.0272 22.8326 18.379 22.0071 17.6995 21.2305ZM30.6532 6.72878C30.3826 6.30673 30.1474 5.88468 29.8835 5.47782C29.7149 5.21952 29.5843 4.93675 29.4021 4.69027C29.1282 4.32139 28.8559 4.28763 28.5019 4.57547C27.7609 5.17816 27.1859 5.92603 26.6919 6.73469C26.5283 7.0048 26.648 7.26901 26.9549 7.35679C27.0578 7.37905 27.1625 7.3912 27.2677 7.39309C27.6336 7.40407 28.0087 7.39309 28.3636 7.42095C28.9756 7.45976 29.5876 7.51637 30.1997 7.56529C30.3035 7.58475 30.4107 7.57073 30.506 7.52524C30.6013 7.47975 30.6797 7.40508 30.7299 7.31206C30.858 7.09344 30.7164 6.90689 30.6532 6.72878ZM36.8789 16.896C36.5501 16.3414 36.2297 15.7801 35.8833 15.2365C35.2628 14.2624 34.6364 13.2951 34.0143 12.3362C33.8452 12.1156 33.6311 11.9337 33.3862 11.8027C32.9504 11.6618 32.4775 11.4937 31.9734 11.4693L31.1548 11.3849C31.0469 11.3688 29.8279 11.1831 27.8671 11.0768C26.7556 11.0263 25.6419 11.0461 24.5329 11.1358C24.0314 11.1836 23.5264 11.1836 23.0248 11.1358C22.6674 11.0945 22.3672 11.1772 22.1817 11.4397C21.5723 11.9901 21.0269 12.5371 20.4806 13.0773C20.0034 13.5593 19.5465 14.0244 19.0255 14.5199C18.6698 14.8946 18.6664 15.1284 18.9252 15.5742C18.9464 15.611 18.9751 15.6429 19.0095 15.6678C19.7236 16.7652 20.4477 17.8726 21.1946 18.9599C21.7426 19.7584 22.3268 20.5307 22.8807 21.3233C23.4707 22.1675 24.0356 23.0326 24.6762 23.8692C25.182 24.6246 25.7721 25.3446 26.3623 26.0959C26.7105 26.6243 27.2272 26.8902 27.8577 26.9215C28.1292 26.9451 28.3889 26.9037 28.5946 26.7282C28.9507 26.4488 29.2828 26.1402 29.5876 25.8055C30.0488 25.3109 30.4652 24.7741 30.9255 24.2786C31.5923 23.5603 32.2878 22.8672 32.9597 22.1531C33.6316 21.439 34.3017 20.6869 34.9829 19.9652C35.568 19.3481 36.207 18.759 36.7642 18.1386C37.1739 17.6945 37.1866 17.4725 36.8789 16.896ZM40.852 13.1719C40.7729 13.1367 40.69 13.1112 40.605 13.0959C40.2602 12.9962 39.9146 12.9 39.5723 12.7954C39.3885 12.7388 39.2469 12.6459 39.0293 12.6054C38.7815 12.5514 38.3591 12.7097 38.5236 13.1373C38.6081 13.357 38.6779 13.4098 38.7765 13.5846C39.0224 14.0211 39.1477 14.3589 39.402 14.7047C39.5706 14.9402 39.7779 14.947 40.0005 14.7529C40.3453 14.4506 40.6707 14.1265 41.0602 13.7973C41.2642 13.5154 41.088 13.3052 40.852 13.1719ZM39.8294 21.7108C39.4922 21.1529 39.2056 21.1359 38.7823 21.542C38.7419 21.5808 38.7023 21.6205 38.6644 21.6618C37.9824 22.4216 37.3045 23.1939 36.6158 23.9519C36.169 24.444 35.7012 24.915 35.267 25.4046C34.9501 25.7247 34.652 26.0629 34.3743 26.4175C34.1922 26.6539 34.3743 26.924 34.6204 26.9923C34.681 27.0052 34.7432 27.0096 34.805 27.005C35.2855 27.005 35.7686 26.913 36.2466 26.8362C37.5976 26.6218 39.1411 26.7359 40.5249 26.6505C41.0689 26.609 41.6026 26.4786 42.1046 26.2648C42.5262 26.0917 42.6105 25.7828 42.3837 25.3886C42.3441 25.3185 42.2994 25.2493 42.2556 25.1826C41.4496 24.0026 40.6783 22.863 39.8294 21.7108Z" fill="#32BAF6"></path>
    <path fill-rule="evenodd" clip-rule="evenodd" d="M33.3508 18.1011C33.2594 19.2477 33.0194 19.9495 32.3092 20.8599C31.2667 22.1962 30.1052 22.668 28.4041 22.7982C28.0799 22.8229 27.8951 22.834 27.5714 22.8024C27.0586 22.7522 26.783 22.6335 26.2973 22.4633C25.9878 22.3547 25.7614 22.2698 25.5195 22.1468L25.435 22.1024C25.4688 22.1024 25.397 22.0814 25.3783 22.0714L25.3386 22.0488C24.926 21.8191 24.542 21.5419 24.1947 21.2233C24.1778 21.1898 24.0992 21.1488 24.095 21.0977C23.9307 20.9649 23.7806 20.8159 23.6469 20.6531H23.6292L23.6477 20.6397C22.8725 19.7329 22.2951 18.5306 22.0254 17.0127V16.8453C22.0254 14.3653 23.2851 12.345 26.5062 11.7179C27.2341 11.5789 28.0508 11.64 28.8599 11.8854L28.9198 11.9038C29.5853 12.0955 30.1101 12.3538 30.7595 12.8247C31.3452 13.2495 31.7886 13.7358 32.0809 14.1191C32.2625 14.3669 32.428 14.6258 32.5764 14.8944H32.5958L32.5831 14.9053C33.0523 15.8003 33.4526 16.8223 33.3508 18.1011ZM28.569 15.5785C28.2549 15.3708 27.8403 15.2759 27.3837 15.3332H27.3769C26.6279 15.4537 26.2625 15.733 25.971 16.3379C25.8031 16.6864 25.8002 16.9613 25.807 17.3132C25.8179 17.8812 26.0392 18.1868 26.536 18.4846C27.0128 18.7704 27.4007 18.8012 27.896 18.6018C28.2812 18.481 28.612 18.2775 28.8838 17.8865C29.4291 17.0827 29.2301 16.0214 28.569 15.5785Z" fill="#1D3060"></path>
    <path d="M72.9059 18.3623C65.7919 18.3623 60.2388 23.988 60.2388 31.0657C60.2388 38.107 65.7919 43.6965 72.9059 43.6965C80.0195 43.6965 85.609 38.107 85.609 31.0657C85.609 23.988 80.0195 18.3623 72.9059 18.3623ZM72.9059 40.0307C68.006 40.0307 64.1586 36.1833 64.1586 31.0657C64.1586 25.9117 68.006 22.0281 72.9059 22.0281C77.8419 22.0281 81.6893 25.9117 81.6893 31.0657C81.6893 36.1833 77.8419 40.0307 72.9059 40.0307Z" fill="#1D3060"></path>
    <path d="M111.189 18.8704H107.269V36.6188L92.605 18.8704H89.3027V43.1883H93.1859V25.7303L107.886 43.1883H111.189V18.8704Z" fill="#1D3060"></path>
    <path d="M148.87 18.8704H144.769L139.434 37.1996L133.844 18.8704H130.106L124.516 37.1996L119.18 18.8704H115.116L122.374 43.1883H126.512L131.993 25.1132L137.437 43.1883H141.575L148.87 18.8704Z" fill="#1D3060"></path>
    <path d="M172.451 43.1883L161.744 18.8704H158.115L147.407 43.1883H151.618L154.013 37.5262H165.845L168.241 43.1883H172.451ZM164.321 33.9693H155.538L159.929 23.6251L164.321 33.9693Z" fill="#1D3060"></path>
    <path d="M198.125 43.1883L189.342 33.4611C193.951 33.2071 197.001 30.3761 197.001 26.202C197.001 21.8103 193.661 18.8704 188.653 18.8704H177.219V43.1883H181.103V33.4975H184.623L193.298 43.1883H198.125ZM181.103 29.9768V22.391H188.653C191.338 22.391 193.117 23.9154 193.117 26.202C193.117 28.4524 191.338 29.9768 188.653 29.9768H181.103Z" fill="#1D3060"></path>
    <path d="M201.806 18.8704V43.1883H210.3C218.575 43.1883 223.729 38.1069 223.729 31.0293C223.729 23.9518 218.575 18.8704 210.3 18.8704H201.806ZM205.69 39.6677V22.391H210.3C216.216 22.391 219.809 25.9843 219.809 31.0293C219.809 36.0744 216.216 39.6677 210.3 39.6677H205.69Z" fill="#1D3060"></path>
    <path d="M171.815 29.9783H182.306V33.4751H171.815V29.9783Z" fill="#1D3060"></path>
    <path d="M62.2691 8.04871C63.0238 8.04871 63.8273 8.04871 64.582 8.04871C65.4218 8.04871 65.8601 8.44352 65.8601 9.02976C65.8601 9.61601 65.4584 9.98687 64.6063 9.98687H62.2691V8.04871ZM62.2691 4.85438H64.6063C65.3245 4.85438 65.6896 5.2133 65.6896 5.70382C65.6896 6.19434 65.3245 6.49343 64.582 6.49343H62.2691V4.85438ZM60.4067 3.23926V11.614C61.7945 11.614 63.3038 11.614 64.6794 11.614C66.3835 11.614 67.5277 11.0038 67.7834 9.65188C67.9659 8.68283 67.5156 7.6061 66.4322 7.22323C67.2478 6.85234 67.5643 6.2063 67.5643 5.51239C67.5643 3.95709 66.2253 3.23926 64.6063 3.23926H60.4067Z" fill="#32BAF6"></path>
    <path d="M71.1377 11.614V3.23926H69.251V11.614H71.1377Z" fill="#32BAF6"></path>
    <path d="M80.5902 11.4704L78.253 8.69477C79.8847 8.12053 80.2129 7.15144 80.2255 6.06273C80.2255 4.59118 79.13 3.23926 77.0725 3.23926C75.6973 3.23926 74.419 3.23926 73.0312 3.23926V11.614H74.9299V8.86226H76.3058L78.4849 11.614H80.5902V11.4704ZM77.0725 4.84242C77.9614 4.84242 78.3388 5.53632 78.3507 6.11059C78.3507 6.637 77.9733 7.28304 77.0971 7.28304H74.9299V4.84242H77.0725Z" fill="#32BAF6"></path>
    <path d="M83.5828 11.614H85.4695V4.90223H88.0626V3.23926C85.5672 3.23926 83.4731 3.23926 80.9897 3.23926V4.90223H83.5828V11.614Z" fill="#32BAF6"></path>
    <path d="M96.8053 11.6259V3.25122H94.9305V6.6011H91.1211V3.25122H89.2217V11.6259H91.1211V8.31197H94.9305V11.6259H96.8053Z" fill="#32BAF6"></path>
    <path d="M106.267 11.4704L103.93 8.69477C105.561 8.12053 105.89 7.15144 105.902 6.06273C105.902 4.59118 104.806 3.23926 102.749 3.23926C101.374 3.23926 100.095 3.23926 98.7075 3.23926V11.614H100.607V8.86226H101.982L104.161 11.614H106.267V11.4704ZM102.749 4.84242C103.638 4.84242 104.015 5.53632 104.027 6.11059C104.027 6.637 103.65 7.28304 102.773 7.28304H100.607V4.84242H102.749Z" fill="#32BAF6"></path>
    <path d="M109.415 11.614V3.23926H107.528V11.614H109.415Z" fill="#32BAF6"></path>
    <path d="M118.539 4.28013C117.565 3.29909 116.519 2.98804 115.362 2.98804C112.234 2.98804 110.822 5.08171 110.822 7.43859C110.822 9.61603 112.063 11.8532 115.35 11.8532C116.92 11.8532 118.088 11.3269 118.819 10.298V6.64898H115.143V8.2043H117.176V9.54421C116.519 10.0348 115.959 10.1305 115.362 10.1305C113.354 10.1305 112.684 8.63497 112.684 7.43859C112.684 5.60813 113.743 4.69887 115.362 4.69887C116.044 4.69887 116.835 4.95011 117.358 5.44063L118.539 4.28013Z" fill="#32BAF6"></path>
    <path d="M127.926 11.6259V3.25122H126.052V6.6011H122.241V3.25122H120.343V11.6259H122.241V8.31197H126.052V11.6259H127.926Z" fill="#32BAF6"></path>
    <path d="M131.679 11.614H133.566V4.90223H136.159V3.23926C133.663 3.23926 131.57 3.23926 129.086 3.23926V4.90223H131.679V11.614Z" fill="#32BAF6"></path>
    <path d="M141.822 11.6119V3.17969H139.954V11.6119H141.822Z" fill="#32BAF6"></path>
    <path d="M149.869 4.17964C149.001 3.16777 148.024 2.87866 146.723 2.87866C144.987 2.87866 143.396 3.77007 143.384 5.44448C143.36 7.43209 144.951 7.8778 146.735 8.04642C147.88 8.14277 148.446 8.46807 148.435 9.17878C148.435 9.78106 147.747 10.1786 146.747 10.1786C145.891 10.1786 144.818 9.81723 144.167 8.986L143.046 10.1545C143.758 11.335 145.276 11.9012 146.735 11.8891C148.555 11.8771 150.291 11.058 150.291 9.17878C150.291 7.2273 148.711 6.58886 147.048 6.4443C145.963 6.34794 145.228 6.20338 145.228 5.43244C145.228 4.85422 145.903 4.50489 146.735 4.50489C147.398 4.50489 148.218 4.72172 148.687 5.21561L149.869 4.17964Z" fill="#32BAF6"></path>
    <path d="M159.068 11.4674L156.754 8.67273C158.369 8.09446 158.694 7.11876 158.706 6.02256C158.706 4.5409 157.622 3.17969 155.585 3.17969C154.223 3.17969 152.957 3.17969 151.583 3.17969V11.6119H153.464V8.84135H154.825L156.983 11.6119H159.068V11.4674ZM155.585 4.79386C156.465 4.79386 156.838 5.49254 156.85 6.07075C156.85 6.60078 156.476 7.25127 155.609 7.25127H153.464V4.79386H155.585Z" fill="#32BAF6"></path>
    <path d="M167.265 11.612H169.302L165.518 3.17969H163.469L161.577 7.39582L159.684 11.612H161.709L162.324 10.1664H166.651L167.265 11.612ZM165.94 8.50406H163.035L164.494 5.08296L165.94 8.50406Z" fill="#32BAF6"></path>
    <path d="M176.619 9.87731H172.039V8.17883H176.197V6.5285H172.039V4.90227H176.45V3.17969H170.195C170.195 5.98642 170.195 8.8052 170.195 11.612H176.619V9.87731Z" fill="#32BAF6"></path>
    <path d="M178.104 3.17969V11.612H184.203V9.88939H179.985V3.17969H178.104Z" fill="#32BAF6"></path>
  </g>
  <defs>
    <clipPath id="clip0_2332_512">
      <rect width="223.729" height="44" fill="white"></rect>
    </clipPath>
  </defs>
</svg>
