<svg width="102" height="69" viewBox="0 0 102 69" fill="none" xmlns="http://www.w3.org/2000/svg">
<path d="M9.64968 61.1909C12.709 57.7098 14.2621 53.1491 16.5461 49.1157C16.8099 48.6502 17.0817 48.1951 17.5887 47.9412C17.7006 47.8851 17.8479 47.6724 17.7337 47.6313C17.2096 47.4426 17.6321 47.207 17.7109 47.0652C19.0333 44.6797 20.3751 42.3044 21.7089 39.9246C21.79 39.7805 21.8916 39.6181 21.8905 39.4649C21.8882 39.1595 22.0549 38.9708 22.2468 38.789C22.4033 38.6403 22.5152 38.4962 22.5745 38.2652C22.6396 38.0079 22.8338 37.7209 23.1604 37.7609C23.431 37.7941 23.6526 38.0239 23.6834 38.2892C23.7302 38.6987 23.7713 39.1241 23.6115 39.53C23.3191 40.278 23.0473 41.035 22.7356 41.7738C21.6347 44.3835 20.2678 46.8616 18.975 49.3764C17.8125 51.6384 16.4947 53.8135 15.2168 56.0104C15.1403 56.1419 14.8948 56.2231 15.0592 56.4118C15.2054 56.5799 15.4349 56.5399 15.6245 56.4758C15.7455 56.4347 15.8723 56.3535 15.9488 56.2528C16.224 55.8892 16.5872 55.8171 17.0131 55.8411C17.2335 55.8537 17.4791 55.9223 17.6743 55.7176C18.0752 55.3002 18.4943 54.9102 18.8563 54.446C19.7847 53.2532 20.4139 51.8374 21.5662 50.815C21.7398 50.6607 21.8494 50.4594 21.9864 50.2833C22.2913 49.8899 22.554 49.4404 23.0211 49.1168C23.133 49.5091 23.1079 49.8453 22.9971 50.1826C22.8361 50.6755 22.6808 51.1707 22.5152 51.6624C22.3781 52.0707 22.4055 52.4893 22.4192 52.9067C22.4227 53.0233 22.4409 53.1525 22.5734 53.1971C22.7002 53.2406 22.7675 53.1457 22.8646 53.0714C23.1467 52.8575 23.2449 52.5922 23.2175 52.2525C23.1878 51.8832 23.3054 51.5401 23.5475 51.2782C23.8102 50.9934 23.9346 50.6607 24.0466 50.3096C24.7877 47.9812 25.5414 45.6586 26.2688 43.3256C27.324 39.9395 28.3552 36.5453 29.6388 33.2346C30.4188 31.2241 31.7766 29.9319 33.9109 29.463C35.2219 29.1748 36.4164 29.2526 37.5013 30.1491C38.1876 30.7164 38.8237 31.327 39.4335 31.972C41.2892 33.9299 41.4788 36.4881 40.3037 38.8096C38.8374 41.7063 37.2569 44.5424 35.6559 47.3671C33.9029 50.4605 31.6327 53.0531 28.7538 55.1504C25.4809 57.5337 22.2057 59.9135 18.8015 62.1046C17.6401 62.8525 16.5324 63.6302 15.6131 64.6674C15.3915 64.9178 15.1152 65.1683 15.3835 65.4691C15.6028 65.7149 16.0402 65.6863 16.2686 65.5159C16.6249 65.2506 17.028 65.0665 17.3694 64.8206C18.42 64.0613 19.6111 63.6233 20.7919 63.1762C23.0211 62.3345 25.1931 61.3796 27.1858 60.0713C30.7636 57.7212 33.6894 54.6827 36.2782 51.2953C40.9398 45.1954 44.3965 38.4322 47.2241 31.3282C48.8514 27.2398 50.3417 23.0966 52.106 19.0631C52.1597 18.9408 52.1894 18.7898 52.2807 18.7052C53.0733 17.9596 53.94 17.4003 55.1094 17.6451C55.3035 17.6862 55.4212 17.7697 55.4234 17.9664C55.428 18.5508 55.5399 19.1546 55.3663 19.7173C54.3888 22.8885 53.3165 26.0265 51.5704 28.8763C49.7238 31.8908 47.9481 34.9351 46.7787 38.2973C46.17 40.0458 44.5427 46.2978 44.7037 48.1893C44.7426 48.6502 44.9333 48.8515 45.3204 48.6685C45.7064 48.4867 46.0707 48.2191 46.0798 47.7045C46.0855 47.4037 46.0912 47.1018 46.1175 46.8022C46.2146 45.6894 47.7882 40.2093 48.2667 39.2373C49.9591 35.8031 52.0992 32.6399 54.2906 29.5167C55.87 27.2673 57.1398 24.8806 58.0762 22.2949C59.3427 18.7967 59.8726 15.072 61.3845 11.6515C61.4394 11.528 61.4953 11.4639 61.6255 11.4411C61.9441 11.3862 62.5162 11.7681 62.6236 12.0815C63.1124 13.5041 63.5943 14.9302 64.1162 16.3402C64.4085 17.1316 64.9212 17.78 65.6955 18.1528C66.5508 18.5634 67.453 18.871 68.1804 19.5263C68.4796 19.7962 68.5367 20.01 68.1976 20.2605C67.8618 20.5086 67.4987 20.7213 67.1698 20.9775C66.7632 21.2943 66.5052 21.6888 66.4366 22.2378C66.3704 22.7707 66.8626 22.7592 67.0544 23.0291C67.3491 23.4431 67.7374 23.4294 68.1724 23.355C68.7971 23.2487 69.4298 23.1835 70.0556 23.084C71.5104 22.853 72.9836 22.845 74.4453 22.6952C75.4103 22.5957 76.3147 22.1749 77.2934 22.1451C77.4099 22.1417 77.5286 22.1017 77.5606 21.961C77.5937 21.8158 77.4944 21.7517 77.3905 21.69C76.7955 21.3412 76.4015 20.6413 75.5861 20.6733C75.4628 20.6779 75.3361 20.5864 75.2116 20.5384C74.1667 20.1324 73.4883 19.3376 73.0144 18.369C72.5199 17.3592 71.7879 16.6319 70.7544 16.195C70.2623 15.9869 69.8032 15.6667 69.2939 15.5386C68.3734 15.3076 68.0811 14.6443 67.8995 13.8403C67.6186 12.5961 67.509 11.3301 67.3993 10.0642C67.3582 9.59074 67.2109 9.11729 67.3228 8.62898C67.6323 8.73419 67.7088 9.10929 68.0011 9.17676C68.6532 9.32886 69.0221 9.85377 69.3384 10.3306C69.874 11.1369 70.3844 11.9637 70.9554 12.7459C71.6749 13.7306 72.6136 14.4567 73.7773 14.8307C75.9561 15.5306 77.8735 16.705 79.7098 18.0339C81.7459 19.5068 83.8198 20.918 86.1357 21.9198C87.2092 22.3841 88.3272 22.7444 89.3858 23.2373C90.7504 23.8731 92.0226 24.6862 93.2822 25.5119C94.214 26.1237 95.1402 26.7435 96.0983 27.3794C96.1759 27.4091 96.2525 27.4423 96.329 27.48C96.6944 27.6641 96.9924 27.8768 97.2814 28.1261C97.2802 28.1204 97.2791 28.1158 97.2779 28.1101C97.5566 28.3285 97.793 28.5046 98.0179 28.6933C98.1618 28.8146 98.2989 28.9083 98.501 28.9243C99.2479 28.9804 99.9696 28.8626 100.668 28.619C101.189 28.4383 101.33 27.7041 100.866 27.4423C99.9776 26.9402 99.2832 26.2266 98.5661 25.5302C98.4473 25.4147 98.3171 25.3049 98.1755 25.2202C97.3716 24.7411 96.5574 24.2768 95.7557 23.7942C94.857 23.2533 93.9685 22.6963 93.0264 22.1154C93.1451 22.0525 93.1988 22.0182 93.2571 21.9942C93.7344 21.7952 93.7846 21.7186 93.7367 21.2806C93.7344 21.2577 93.7755 21.2302 93.7938 21.2039C94.0793 20.7659 93.8817 20.2719 93.9525 19.8099C93.9971 19.5251 93.6191 19.8236 93.6636 19.6006C93.7766 19.0323 93.3781 19.5 93.2571 19.3971C93.4226 19.2392 93.6339 19.11 93.5802 18.8447C93.4078 18.7727 93.3039 18.9865 93.1497 18.9042C93.2114 18.7281 93.3827 18.6057 93.3393 18.3987C93.2776 18.4079 93.2433 18.4067 93.2125 18.4181C93.0641 18.4719 92.9065 18.6812 92.7717 18.5382C92.6335 18.3907 92.9053 18.3129 92.943 18.1929C93.0001 18.0099 93.0549 17.7812 92.9921 17.6176C92.9225 17.4369 92.7557 17.7411 92.6107 17.6474C92.6712 17.4061 92.8391 17.0984 92.6301 16.9372C92.155 16.569 92.4143 16.0315 92.2373 15.6015C92.1059 15.2813 91.6983 15.1383 91.7085 14.7266C91.7085 14.6923 91.5053 14.7781 91.4013 14.8273C91.1832 14.929 91.0017 15.1143 90.723 15.152C90.7207 14.9005 90.9057 14.8616 91.0302 14.7666C91.2849 14.5734 91.5338 14.3733 91.5921 14.0279C91.6046 13.9501 91.6948 13.8735 91.624 13.798C91.535 13.7031 91.4333 13.7706 91.3545 13.8232C91.0473 14.0245 90.747 14.2372 90.3176 14.3572C90.8574 13.681 91.1292 13.2129 91.133 12.9529C90.8726 13.0924 90.6351 13.248 90.377 13.3486C90.208 13.4149 89.9351 13.5522 89.8563 13.2903C89.7957 13.0879 89.9784 12.8729 90.1669 12.7379C90.2308 12.6922 90.3267 12.6945 90.4044 12.6647C90.4615 12.643 90.5734 12.5927 90.5083 12.5378C90.1726 12.253 90.4547 12.006 90.5357 11.7464C90.5711 11.6332 90.6111 11.5108 90.4992 11.4216C90.369 11.3187 90.2948 11.4399 90.2046 11.5108C89.9705 11.6938 89.7318 11.8722 89.3355 11.7967C89.5182 11.6515 89.6701 11.5543 89.7923 11.4274C89.9282 11.2867 89.7717 11.0843 89.8814 10.9116C90.0024 10.7218 89.9944 10.5948 89.6804 10.5799C89.5753 10.5754 89.8985 10.3169 89.798 10.1374C89.7341 10.0219 89.6233 10.0905 89.5388 10.1454C89.3355 10.2769 89.1459 10.4404 88.8502 10.4587C88.9724 10.1534 89.3789 10.1317 89.3721 9.74856C88.9941 9.77372 88.7531 9.71654 89.2304 9.39404C89.2738 9.36431 89.2807 9.27968 89.3035 9.22022C88.8582 9.08756 89.3618 8.83368 89.2521 8.669C89.0055 8.56951 88.7976 9.04181 88.6378 8.75706C88.5042 8.51919 88.833 8.33965 88.9872 8.14981C89.0123 8.11779 89.0146 8.06633 89.026 8.02859C88.833 7.90394 88.7029 8.22071 88.5418 8.09721C88.7223 7.51969 88.0759 7.22807 88.1387 6.70888C87.9275 7.36874 88.0965 8.04231 87.7607 8.70445C87.5814 9.05668 87.5163 9.02924 87.24 8.91259C87.2514 9.322 87.5175 9.54843 87.7436 9.81832C87.5061 9.83776 87.385 9.58388 87.1817 9.70853C87.1726 9.94983 87.8076 10.4907 86.8883 10.3123C86.7832 10.2918 86.613 10.6131 86.4737 10.7744C86.6062 10.883 86.7889 10.7675 86.886 10.9082C86.7569 11.09 86.4771 11.0328 86.4063 11.2718C86.5342 11.4068 86.6873 11.3667 86.8255 11.3267C87.1977 11.2192 87.1955 11.2135 87.3519 11.6812C86.8848 11.2284 86.4555 11.8722 86.0124 11.5371C85.9667 11.8642 86.0215 12.0826 86.4874 12.2027C85.8217 12.3091 85.9507 12.5149 86.2065 12.7665C86.2921 12.8511 86.4155 12.9804 86.3241 13.1176C86.2453 13.2354 86.1106 13.1599 86.0009 13.1279C85.9176 13.1039 85.8388 13.0959 85.7737 13.1748C85.7383 13.4046 86.1049 13.4732 86.0055 13.7328C85.6477 13.7153 85.5266 13.8937 85.6424 14.268C85.3888 14.3584 85.0908 14.3126 84.9161 14.6214C84.7002 15.0045 85.2678 15.0011 85.2084 15.2893C85.0223 15.2641 84.8578 14.9862 84.7139 15.1475C84.5746 15.3041 84.7345 15.526 84.8704 15.6724C85.044 15.8588 85.1011 15.9846 84.7699 16.004C84.409 16.0246 84.5381 16.1618 84.6785 16.3345C84.9435 16.6582 85.3557 16.7862 85.6869 17.0733C85.3466 17.1693 85.1251 17.0081 84.9012 16.864C83.3173 15.8405 81.8818 14.6397 80.6999 13.1645C79.2462 11.3496 77.8221 9.51069 76.4004 7.67065C75.1876 6.10049 73.8606 4.65956 72.1979 3.54341C71.5481 3.10656 70.9611 2.57364 70.357 2.07046C69.5931 1.43462 68.7651 0.902853 67.8653 0.487728C67.2554 0.206404 66.5897 -0.126382 65.941 0.0485877C64.8344 0.347066 63.7062 0.741606 62.9445 1.66449C62.0081 2.79779 61.1173 3.97684 60.2882 5.19248C57.8912 8.70674 55.2533 12.0083 51.9416 14.7038C50.8555 15.5878 50.1224 16.6879 49.4612 17.8761C47.9698 20.5555 46.781 23.3813 45.4654 26.1466C45.2576 26.5834 45.0143 27.01 45.068 27.5257C45.0829 27.6641 45.0395 27.8322 44.8796 27.8345C44.4913 27.8414 44.0928 28.0129 43.7799 27.52C43.5709 27.1907 43.411 26.6966 43.0193 26.5903C42.3775 26.4153 41.9676 26.0265 41.6615 25.4924C40.1872 22.9136 38.4765 20.5109 36.5295 18.2626C35.7461 17.358 33.7282 17.2391 33.0407 18.3187C32.7541 18.7692 32.3978 19.1752 32.0906 19.6132C30.6392 21.682 29.2848 23.8171 27.7911 25.8561C27.2783 26.556 26.6914 27.1358 25.7858 27.2227C24.6004 27.337 23.7611 28.0038 23.1512 28.9392C22.0081 30.6935 21.0991 32.5839 20.1456 34.4445C18.902 36.8723 17.6915 39.3173 16.4764 41.7601C16.2663 42.182 15.9751 42.4759 15.4977 42.5183C15.2214 42.5434 15.0649 42.4519 15.2659 42.1363C15.3584 41.9911 15.4315 41.855 15.6119 41.8069C15.6816 41.7875 15.8449 41.7532 15.7844 41.6857C15.5126 41.3758 15.8141 41.1482 15.8643 40.8875C15.886 40.7754 15.95 40.6553 15.8358 40.5616C15.7044 40.4541 15.6336 40.5833 15.54 40.6451C15.307 40.7994 15.0832 40.9927 14.7623 40.9024C15.0889 40.5318 15.0741 40.5273 15.2294 40.0298C15.3173 39.7473 14.8342 39.5655 15.1186 39.2544C15.1357 39.2361 14.9587 39.2133 14.8742 39.267C14.6721 39.3951 14.4882 39.5666 14.1468 39.5975C14.2461 39.4843 14.2815 39.4306 14.3295 39.3894C14.5533 39.198 14.5716 39.0158 14.3843 38.8427C14.3272 38.789 14.3124 38.6849 14.3592 38.6666C14.8742 38.4619 14.3672 38.0377 14.7006 37.6866C14.4905 37.7746 14.4323 37.8021 14.3717 37.8238C14.2404 37.8718 14.1034 38.0582 13.9755 37.9073C13.8601 37.7723 14.0166 37.6363 14.0988 37.5139C14.1822 37.3892 14.3615 37.3206 14.3615 37.1308C14.1182 37.085 14.0006 37.3538 13.7848 37.2955C13.7231 37.0816 14.2153 37.0199 13.9367 36.7774C13.7619 36.6265 13.6934 36.4252 13.5712 36.2514C13.5244 36.1839 13.4513 36.1999 13.3919 36.2365C13.3223 36.2777 13.3428 36.3417 13.352 36.4103C13.3851 36.6733 13.3405 36.9432 13.3337 37.1891C13.3257 37.4933 13.0128 37.5402 13.0471 37.7598C13.1179 38.2046 12.9488 38.2527 12.5731 38.0022C12.6028 38.4379 12.8666 38.6735 13.0996 38.9605C12.8609 38.9788 12.749 38.7215 12.54 38.8302C12.4966 39.0017 12.6691 39.0863 12.701 39.2293C12.7319 39.3665 12.6805 39.5278 12.564 39.482C12.1163 39.3082 12.0638 39.7668 11.7806 39.8731C11.9519 40.0378 12.1415 39.9177 12.2888 40.0092C12.1746 40.2093 11.8263 40.1224 11.7897 40.3592C11.9702 40.8052 12.5811 39.8674 12.612 40.7057C12.3345 40.6794 12.0216 40.4586 11.8046 40.8269C11.7932 40.8463 11.6824 40.8212 11.6264 40.796C11.5408 40.7583 11.4529 40.6348 11.3706 40.7377C11.2804 40.8498 11.3535 40.9938 11.3935 41.1196C11.4334 41.2443 11.6778 41.17 11.6481 41.3701C11.3611 41.4822 11.4194 41.7642 11.8229 42.2163C11.6162 42.4817 11.3444 42.1237 11.1285 42.285C11.068 42.5286 11.4255 42.6097 11.3512 42.8579C10.9835 42.8289 10.864 43.0111 10.9926 43.4045C10.738 43.464 10.4605 43.4572 10.2766 43.7007C10.0094 44.0564 10.5336 44.125 10.545 44.3835C10.3486 44.3835 10.1955 44.1181 10.0688 44.2668C9.9249 44.4349 10.0802 44.6362 10.2104 44.7929C10.2321 44.818 10.2549 44.842 10.2789 44.8661C10.4239 45.017 10.3691 45.1199 10.1841 45.1257C9.64854 45.144 9.92947 45.2995 10.0882 45.5122C10.3257 45.8301 10.7608 45.8839 11.0121 46.2155C10.7197 46.291 10.5142 46.1457 10.2915 46.0897C10.0642 46.0325 9.90434 45.9982 9.98428 46.3573C10.0391 46.6032 9.974 46.8799 9.94089 47.1407C9.89635 47.4872 10.2915 47.5329 10.3988 47.7879C10.1133 47.9137 9.96601 47.7228 9.79471 47.6027C9.67481 47.5181 9.46354 47.478 9.49894 47.6461C9.55147 47.8966 9.39502 48.258 9.80157 48.3963C9.97629 48.4558 10.2001 48.5896 10.2538 48.7406C10.3417 48.991 10.2915 49.0024 10.5313 49.0242C10.8248 49.0516 11.1342 48.935 11.4586 49.0974C11.2599 49.2232 11.1011 49.3226 10.875 49.4656C11.0897 49.4999 11.2256 49.5571 11.3478 49.5354C11.7281 49.4713 11.9793 49.7572 12.2134 49.9322C12.387 50.0614 11.9942 50.2798 11.9496 50.5051C11.9439 50.536 11.9188 50.5646 11.9028 50.5943C10.8076 52.6848 9.71249 54.7742 8.61848 56.8658C8.61848 56.8658 5.172 65.1054 0 67.3846C0 67.3846 1.2596 70.7399 9.6474 61.1932L9.64968 61.1909Z" fill="#FFA600"/>
<path d="M55.0261 49.1694C54.0508 48.7268 53.2789 48.1253 52.709 47.3648C52.1392 46.6043 51.8286 45.7638 51.7737 44.8409H55.5936C55.6656 45.4196 55.9499 45.8987 56.4467 46.2795C56.9435 46.6592 57.5624 46.8491 58.3024 46.8491C59.0424 46.8491 59.5894 46.705 59.996 46.4145C60.4025 46.1252 60.6058 45.7546 60.6058 45.3018C60.6058 44.8135 60.3568 44.4475 59.8601 44.2028C59.3633 43.9592 58.5731 43.6916 57.4893 43.4023C56.369 43.1312 55.452 42.8511 54.7394 42.5617C54.0257 42.2724 53.4113 41.8287 52.8974 41.2317C52.3824 40.6348 52.1255 39.8297 52.1255 38.8164C52.1255 37.9851 52.3641 37.2246 52.8438 36.5373C53.3223 35.85 54.0086 35.3079 54.9028 34.9088C55.7969 34.5108 56.8487 34.3118 58.0592 34.3118C59.8475 34.3118 61.2738 34.7601 62.3404 35.6556C63.4059 36.551 63.9929 37.7586 64.1014 39.2773H60.471C60.4173 38.6804 60.1684 38.2058 59.7264 37.8524C59.2834 37.5002 58.6918 37.3229 57.9518 37.3229C57.2655 37.3229 56.7368 37.4499 56.3668 37.7026C55.9968 37.9565 55.8118 38.3087 55.8118 38.7604C55.8118 39.267 56.0641 39.6513 56.57 39.9132C57.0759 40.175 57.8616 40.4426 58.9271 40.7137C60.0108 40.9847 60.905 41.266 61.6096 41.5554C62.3142 41.8447 62.924 42.293 63.439 42.8979C63.954 43.504 64.2201 44.3046 64.2384 45.2995C64.2384 46.1675 63.9986 46.9463 63.5201 47.6336C63.0416 48.3209 62.3553 48.8595 61.4611 49.2483C60.5669 49.6371 59.5243 49.8315 58.3321 49.8315C57.1399 49.8315 56.0025 49.6097 55.0261 49.1671V49.1694Z" fill="#0056F5"/>
<path d="M70.1184 48.8709C68.9628 48.2294 68.0549 47.3202 67.396 46.1446C66.7359 44.969 66.407 43.6127 66.407 42.0746C66.407 40.5364 66.7462 39.1801 67.4234 38.0045C68.1006 36.8289 69.0267 35.9197 70.2007 35.2782C71.3746 34.6366 72.6844 34.3153 74.129 34.3153C75.5736 34.3153 76.8835 34.6366 78.0574 35.2782C79.2314 35.9209 80.1575 36.83 80.8347 38.0045C81.5119 39.1801 81.8511 40.5376 81.8511 42.0746C81.8511 43.6115 81.5028 44.969 80.8084 46.1446C80.113 47.3202 79.1731 48.2294 77.9901 48.8709C76.807 49.5136 75.4834 49.8338 74.0206 49.8338C72.5577 49.8338 71.2752 49.5125 70.1184 48.8709ZM75.9573 46.0222C76.5626 45.6872 77.0456 45.1863 77.4065 44.5161C77.7674 43.8471 77.9489 43.0329 77.9489 42.0746C77.9489 40.6462 77.5732 39.5472 76.8241 38.7776C76.0738 38.0091 75.158 37.6248 74.0742 37.6248C72.9905 37.6248 72.0826 38.0091 71.3518 38.7776C70.6198 39.5461 70.2543 40.6451 70.2543 42.0746C70.2543 43.504 70.6106 44.603 71.3244 45.3715C72.0381 46.14 72.9368 46.5243 74.0206 46.5243C74.7069 46.5243 75.3521 46.3573 75.9573 46.0222Z" fill="#0056F5"/>
<path d="M91.5236 37.6786H88.8959V49.5903H85.0486V37.6786H83.3413V34.5577H85.0486V33.7984C85.0486 31.9537 85.5716 30.5963 86.6199 29.7283C87.6671 28.8603 89.2476 28.4532 91.3614 28.5069V31.709C90.4398 31.6907 89.7992 31.8451 89.4372 32.1699C89.0752 32.4958 88.8948 33.0836 88.8948 33.9333V34.5577H91.5224V37.6786H91.5236Z" fill="#0056F5"/>
<path d="M98.4051 37.6786V44.9507C98.4051 45.4573 98.5273 45.8233 98.7706 46.0497C99.0149 46.2761 99.4249 46.3893 100.004 46.3893H101.765V49.5914H99.3804C96.1828 49.5914 94.5841 48.0361 94.5841 44.9244V37.6797H92.7957V34.5588H94.5841V30.841H98.404V34.5588H101.764V37.6797H98.404L98.4051 37.6786Z" fill="#0056F5"/>
<path d="M37.3209 68.0685C36.3982 67.6488 35.6662 67.0792 35.1283 66.3611C34.5893 65.6417 34.2947 64.8458 34.2433 63.9721H37.8599C37.9284 64.5199 38.1979 64.9739 38.6673 65.333C39.1378 65.6921 39.7225 65.8727 40.4237 65.8727C41.1248 65.8727 41.6421 65.7355 42.027 65.4622C42.4118 65.1889 42.6037 64.8378 42.6037 64.409C42.6037 63.9469 42.3684 63.5993 41.8979 63.3683C41.4274 63.1373 40.6795 62.8845 39.654 62.6101C38.5931 62.3528 37.7263 62.0875 37.0503 61.8141C36.3742 61.5408 35.7941 61.1211 35.3065 60.5562C34.8188 59.9912 34.5756 59.2296 34.5756 58.2701C34.5756 57.4822 34.8017 56.764 35.2551 56.1122C35.7073 55.4615 36.3582 54.948 37.2044 54.5706C38.0506 54.1944 39.0464 54.0057 40.1918 54.0057C41.8842 54.0057 43.2352 54.4299 44.2436 55.2773C45.2519 56.1247 45.8081 57.2683 45.9108 58.7058H42.4746C42.4232 58.1409 42.188 57.6915 41.7689 57.3575C41.3498 57.0236 40.7902 56.8567 40.0891 56.8567C39.4393 56.8567 38.9391 56.9767 38.5885 57.2157C38.2379 57.4559 38.0632 57.7898 38.0632 58.2175C38.0632 58.6967 38.3019 59.0615 38.7815 59.3085C39.26 59.5567 40.0034 59.8094 41.0129 60.0656C42.0384 60.3229 42.8846 60.5882 43.5515 60.8615C44.2184 61.136 44.7951 61.5591 45.2828 62.1332C45.7704 62.7073 46.0216 63.4643 46.0387 64.4067C46.0387 65.2289 45.8115 65.9654 45.3593 66.6149C44.9059 67.2656 44.2561 67.7745 43.4099 68.1428C42.5637 68.511 41.5759 68.6951 40.4476 68.6951C39.3194 68.6951 38.2425 68.4847 37.3186 68.0662L37.3209 68.0685Z" fill="#0056F5"/>
<path d="M60.9666 55.6376C62.0093 56.708 62.5311 58.2015 62.5311 60.1193V68.4664H58.9408V60.6076C58.9408 59.4778 58.6587 58.6086 58.0946 58.0014C57.5304 57.3941 56.7607 57.0899 55.7866 57.0899C54.8125 57.0899 54.012 57.3941 53.4399 58.0014C52.8666 58.6098 52.5811 59.4778 52.5811 60.6076V68.4664H48.9908V54.2378H52.5811V56.0104C53.0596 55.394 53.6706 54.9103 54.4151 54.5592C55.1586 54.2081 55.9751 54.0331 56.8647 54.0331C58.5571 54.0331 59.9252 54.5683 60.9678 55.6387L60.9666 55.6376Z" fill="#0056F5"/>
<path d="M68.5585 67.786C67.4645 67.1787 66.6046 66.3176 65.981 65.2049C65.3564 64.0922 65.0446 62.8079 65.0446 61.3521C65.0446 59.8963 65.3655 58.6132 66.0062 57.4994C66.6479 56.3866 67.5238 55.5267 68.635 54.9183C69.7461 54.311 70.9852 54.0068 72.3533 54.0068C73.7213 54.0068 74.9604 54.311 76.0715 54.9183C77.1827 55.5267 78.0597 56.3866 78.7003 57.4994C79.341 58.6121 79.6619 59.8963 79.6619 61.3521C79.6619 62.8079 79.333 64.0922 78.6741 65.2049C78.0152 66.3176 77.1267 67.1787 76.0064 67.786C74.8862 68.3944 73.6346 68.6974 72.2493 68.6974C70.8641 68.6974 69.6502 68.3932 68.5562 67.786H68.5585ZM74.0856 65.0894C74.6578 64.7726 75.1157 64.298 75.4583 63.6645C75.7997 63.0309 75.971 62.2613 75.971 61.3533C75.971 60.0004 75.6159 58.9609 74.9067 58.2324C74.1975 57.5051 73.3296 57.1414 72.303 57.1414C71.2764 57.1414 70.4176 57.5051 69.7256 58.2324C69.0335 58.9609 68.6864 60.0004 68.6864 61.3533C68.6864 62.7061 69.0233 63.7457 69.6993 64.4741C70.3742 65.2026 71.225 65.5651 72.2516 65.5651C72.9014 65.5651 73.5124 65.4073 74.0856 65.0894Z" fill="#0056F5"/>
<path d="M102.002 54.2378L97.8478 68.4664H93.9754L91.3854 58.5263L88.7954 68.4664H84.8967L80.7159 54.2378H84.3577L86.8712 65.0757L89.5902 54.2378H93.3861L96.0538 65.0505L98.5673 54.2378H102.003H102.002Z" fill="#0056F5"/>
</svg>
